<svg width="100" height="74" viewBox="0 0 100 74" fill="none" xmlns="http://www.w3.org/2000/svg">
<g clip-path="url(#clip0_482_136)">
<path fill-rule="evenodd" clip-rule="evenodd" d="M20.2813 11.2829H11.6093V19.7684H8.672V11.2829H0V8.53213H8.672V0H11.6093V8.53213H20.2813V11.2829ZM17.5696 37.2447C17.5696 57.3861 33.9501 73.7666 54.0915 73.7666C74.2329 73.7666 90.6134 57.3861 90.6134 37.2447C90.6134 17.1033 74.2252 0.722803 54.0915 0.722803C33.9578 0.722803 17.5696 17.1033 17.5696 37.2447ZM20.6779 37.2447C20.6779 18.8206 35.6674 3.83105 54.0915 3.83105C72.5156 3.83105 87.5051 18.8206 87.5051 37.2447C87.5051 55.6688 72.5156 70.6583 54.0915 70.6583C35.6674 70.6583 20.6779 55.6688 20.6779 37.2447ZM41.666 52.8402L45.5824 44.1215H63.7656L67.682 52.8402H71.3187L56.3991 20.2036H52.9956L38.076 52.8402H41.666ZM54.674 23.7936L62.5068 41.3241H46.8412L54.674 23.7936ZM100.606 10.1018H88.3907V12.9925H100.606V10.1018Z" fill="white"/>
</g>
<defs>
<clipPath id="clip0_482_136">
<rect width="100" height="73.7664" fill="white"/>
</clipPath>
</defs>
</svg>
