<svg width="61" height="68" viewBox="0 0 61 68" fill="none" xmlns="http://www.w3.org/2000/svg">
<g clip-path="url(#clip0_174_56)">
<path d="M57.5183 45.3911C58.2585 45.3911 58.8586 44.7871 58.8586 44.0421C58.8586 43.2971 58.2585 42.6931 57.5183 42.6931C56.7782 42.6931 56.1781 43.2971 56.1781 44.0421C56.1781 44.7871 56.7782 45.3911 57.5183 45.3911Z" fill="white"/>
<path d="M22.9265 57.2307C35.6851 63.0638 50.7797 57.3664 56.5749 44.5245L57.7954 45.0822C51.6857 58.6174 35.8198 64.6088 22.3724 58.4516C8.92502 52.3095 2.97252 36.3401 9.08974 22.8049L10.3102 23.3626C4.51493 36.2045 10.1754 51.3976 22.934 57.2307H22.9265Z" fill="white"/>
<path d="M12.6537 19.6169L11.5681 18.8331C20.1636 6.73734 36.8755 3.94891 48.8928 12.6006L48.1141 13.6933C36.7183 5.48632 20.815 8.14663 12.6612 19.6169H12.6537Z" fill="white"/>
<path d="M10.0331 23.8523C10.7733 23.8523 11.3734 23.2483 11.3734 22.5033C11.3734 21.7583 10.7733 21.1543 10.0331 21.1543C9.29292 21.1543 8.69287 21.7583 8.69287 22.5033C8.69287 23.2483 9.29292 23.8523 10.0331 23.8523Z" fill="white"/>
<path d="M10.5498 51.4804C20.1561 64.179 38.2383 66.6434 50.8545 56.9743L51.6632 58.0445C38.4404 68.1808 19.5571 65.6034 9.48656 52.2943C-0.584015 38.9852 1.97668 19.9786 15.1995 9.84985L16.0081 10.92C3.3918 20.5891 0.943418 38.7817 10.5498 51.4804Z" fill="white"/>
<path d="M16.1953 11.2817C16.9355 11.2817 17.5355 10.6778 17.5355 9.93274C17.5355 9.18771 16.9355 8.58374 16.1953 8.58374C15.4551 8.58374 14.855 9.18771 14.855 9.93274C14.855 10.6778 15.4551 11.2817 16.1953 11.2817Z" fill="white"/>
<path d="M51.798 58.3157C52.5381 58.3157 53.1382 57.7117 53.1382 56.9667C53.1382 56.2216 52.5381 55.6177 51.798 55.6177C51.0578 55.6177 50.4577 56.2216 50.4577 56.9667C50.4577 57.7117 51.0578 58.3157 51.798 58.3157Z" fill="white"/>
<path d="M59.8768 19.4813L58.7013 20.1219C51.1241 6.10435 33.6334 0.889235 19.6994 8.51597L19.0629 7.33277C33.6634 -0.655707 51.9402 4.7855 59.8768 19.4813Z" fill="white"/>
<path d="M59.6597 21.9683C60.3999 21.9683 61 21.3643 61 20.6193C61 19.8742 60.3999 19.2703 59.6597 19.2703C58.9195 19.2703 58.3195 19.8742 58.3195 20.6193C58.3195 21.3643 58.9195 21.9683 59.6597 21.9683Z" fill="white"/>
<path d="M1.62476 29.6402C-0.733778 47.2977 11.6205 63.5987 29.1635 65.9727L28.9838 67.3066C10.6845 64.8271 -2.15639 47.8855 0.299486 29.4593C2.76285 11.0406 19.5946 -1.89169 37.9013 0.587751L37.7216 1.92168C20.1786 -0.452258 3.9833 11.9826 1.62476 29.6402Z" fill="white"/>
<path d="M30.1668 68C30.907 68 31.507 67.396 31.507 66.651C31.507 65.906 30.907 65.302 30.1668 65.302C29.4266 65.302 28.8265 65.906 28.8265 66.651C28.8265 67.396 29.4266 68 30.1668 68Z" fill="white"/>
<path d="M38.6126 2.69799C39.3528 2.69799 39.9528 2.09403 39.9528 1.349C39.9528 0.603966 39.3528 0 38.6126 0C37.8724 0 37.2723 0.603966 37.2723 1.349C37.2723 2.09403 37.8724 2.69799 38.6126 2.69799Z" fill="white"/>
<path d="M48.8254 15.1028C49.5656 15.1028 50.1657 14.4988 50.1657 13.7538C50.1657 13.0088 49.5656 12.4048 48.8254 12.4048C48.0852 12.4048 47.4852 13.0088 47.4852 13.7538C47.4852 14.4988 48.0852 15.1028 48.8254 15.1028Z" fill="white"/>
</g>
<defs>
<clipPath id="clip0_174_56">
<rect width="61" height="68" fill="white"/>
</clipPath>
</defs>
</svg>
