<svg width="134" height="149" viewBox="0 0 134 149" fill="none" xmlns="http://www.w3.org/2000/svg">
<g clip-path="url(#clip0_457_143)">
<path d="M126.352 99.4599C127.978 99.4599 129.296 98.1365 129.296 96.504C129.296 94.8715 127.978 93.5481 126.352 93.5481C124.726 93.5481 123.407 94.8715 123.407 96.504C123.407 98.1365 124.726 99.4599 126.352 99.4599Z" fill="black"/>
<path d="M50.3629 125.402C78.3899 138.184 111.549 125.7 124.279 97.5608L126.96 98.7828C113.539 128.441 78.686 141.569 49.1458 128.078C19.6056 114.619 6.52959 79.6273 19.9674 49.9694L22.6484 51.1913C9.91783 79.3301 22.3523 112.621 50.3794 125.402H50.3629Z" fill="black"/>
<path d="M27.7965 42.9843L25.4116 41.2669C44.2937 14.763 81.0051 8.65302 107.404 27.6103L105.693 30.0048C80.6597 12.0217 45.7246 17.851 27.813 42.9843H27.7965Z" fill="black"/>
<path d="M22.0399 52.2648C23.6659 52.2648 24.984 50.9414 24.984 49.3089C24.984 47.6764 23.6659 46.353 22.0399 46.353C20.4138 46.353 19.0957 47.6764 19.0957 49.3089C19.0957 50.9414 20.4138 52.2648 22.0399 52.2648Z" fill="black"/>
<path d="M23.1748 112.803C44.2773 140.628 83.9987 146.028 111.713 124.841L113.49 127.186C84.4428 149.396 42.9615 143.749 20.8393 114.586C-1.283 85.4236 4.34214 43.777 33.3889 21.583L35.1653 23.9279C7.45076 45.1145 2.07235 84.9778 23.1748 112.803Z" fill="black"/>
<path d="M35.5765 24.7205C37.2025 24.7205 38.5206 23.3971 38.5206 21.7646C38.5206 20.1321 37.2025 18.8087 35.5765 18.8087C33.9505 18.8087 32.6323 20.1321 32.6323 21.7646C32.6323 23.3971 33.9505 24.7205 35.5765 24.7205Z" fill="black"/>
<path d="M113.786 127.78C115.412 127.78 116.73 126.457 116.73 124.824C116.73 123.192 115.412 121.869 113.786 121.869C112.16 121.869 110.842 123.192 110.842 124.824C110.842 126.457 112.16 127.78 113.786 127.78Z" fill="black"/>
<path d="M131.533 42.687L128.95 44.0906C112.305 13.3758 73.8833 1.94855 43.274 18.6601L41.876 16.0675C73.9491 -1.43669 114.098 10.486 131.533 42.687Z" fill="black"/>
<path d="M131.056 48.1364C132.682 48.1364 134 46.813 134 45.1805C134 43.548 132.682 42.2246 131.056 42.2246C129.43 42.2246 128.112 43.548 128.112 45.1805C128.112 46.813 129.43 48.1364 131.056 48.1364Z" fill="black"/>
<path d="M3.56908 64.947C-1.61197 103.638 25.5268 139.356 64.064 144.558L63.6692 147.481C23.4709 142.048 -4.73705 104.926 0.657821 64.5507C6.06914 24.1921 43.0437 -4.14485 83.2585 1.28805L82.8638 4.21091C44.3267 -0.990798 8.75012 26.2562 3.56908 64.947Z" fill="black"/>
<path d="M66.2679 149C67.8939 149 69.212 147.677 69.212 146.044C69.212 144.412 67.8939 143.088 66.2679 143.088C64.6419 143.088 63.3237 144.412 63.3237 146.044C63.3237 147.677 64.6419 149 66.2679 149Z" fill="black"/>
<path d="M84.8211 5.91178C86.4471 5.91178 87.7653 4.58838 87.7653 2.95589C87.7653 1.3234 86.4471 0 84.8211 0C83.1951 0 81.877 1.3234 81.877 2.95589C81.877 4.58838 83.1951 5.91178 84.8211 5.91178Z" fill="black"/>
<path d="M107.256 33.0928C108.882 33.0928 110.2 31.7694 110.2 30.1369C110.2 28.5044 108.882 27.181 107.256 27.181C105.63 27.181 104.312 28.5044 104.312 30.1369C104.312 31.7694 105.63 33.0928 107.256 33.0928Z" fill="black"/>
</g>
<defs>
<clipPath id="clip0_457_143">
<rect width="134" height="149" fill="white"/>
</clipPath>
</defs>
</svg>
