<svg width="20" height="12" viewBox="0 0 20 12" fill="none" xmlns="http://www.w3.org/2000/svg">
<path d="M19.3179 0H0.682129C0.306152 0 0 0.298901 0 0.665972V11.209C0 11.5761 0.306152 11.875 0.682129 11.875H19.3179C19.6938 11.875 20 11.5761 20 11.209V0.665972C20 0.298901 19.6938 0 19.3179 0ZM1.17285 1.64086L6.77881 5.27868L1.17285 10.0425V1.64086ZM10 5.99375L2.52881 1.14507H17.4712L10 5.99328V5.99375ZM7.79199 5.93607L9.62207 7.12357C9.73682 7.19794 9.86816 7.23512 10 7.23512C10.1318 7.23512 10.2627 7.19794 10.3774 7.12357L12.2075 5.93607L17.8481 10.7299H2.15137L7.79199 5.93607ZM13.2212 5.27868L18.8267 1.64086V10.043L13.2212 5.27868Z" fill="white"/>
</svg>
