<svg width="12" height="20" viewBox="0 0 12 20" fill="none" xmlns="http://www.w3.org/2000/svg">
<path d="M6.99805 19.961H3.80166C3.26754 19.961 2.83333 19.5268 2.83333 18.9927V11.7827H0.968324C0.434211 11.7827 0 11.3484 0 10.8143V7.72466C0 7.19055 0.434211 6.75634 0.968324 6.75634H2.83333V5.20906C2.83333 3.67495 3.31481 2.36988 4.22612 1.4347C5.14133 0.496101 6.42057 0 7.92495 0L10.3626 0.00389864C10.8957 0.00487329 11.3294 0.439084 11.3294 0.972222V3.84064C11.3294 4.37476 10.8952 4.80897 10.3616 4.80897H8.72027C8.21979 4.80945 8.0921 4.90984 8.0653 4.94055C8.02047 4.99172 7.96686 5.13548 7.96686 5.53411V6.75634H10.2388C10.4098 6.75634 10.5755 6.79873 10.7178 6.87817C11.0249 7.04971 11.2159 7.37427 11.2159 7.72515L11.2149 10.8148C11.2149 11.3484 10.7807 11.7827 10.2466 11.7827H7.96686V18.9927C7.96686 19.5268 7.53265 19.961 6.99854 19.961H6.99805ZM4.00341 18.7909H6.79581V11.2588C6.79581 10.902 7.08577 10.6126 7.4425 10.6126H10.0439L10.0448 7.9269H7.44201C7.08577 7.9269 6.79581 7.63694 6.79581 7.28021V5.53411C6.79581 5.077 6.84211 4.55702 7.18762 4.16618C7.60429 3.69347 8.2617 3.63938 8.71979 3.63938L10.1594 3.6384V1.17398L7.92446 1.17008C5.50634 1.17008 4.0039 2.71832 4.0039 5.20955V7.28021C4.0039 7.63645 3.71394 7.9269 3.3577 7.9269H1.17008V10.6126H3.35721C3.71345 10.6126 4.00341 10.9025 4.00341 11.2588V18.7909Z" fill="white"/>
</svg>
