<svg width="20" height="20" viewBox="0 0 20 20" fill="none" xmlns="http://www.w3.org/2000/svg">
<path fill-rule="evenodd" clip-rule="evenodd" d="M14.5859 0H5.41357C2.42871 0 0 2.42871 0 5.41406V14.5864C0 17.5718 2.42871 20.0005 5.41357 20.0005H14.5859C17.5713 20.0005 20 17.5718 20 14.5864V5.41406C20 2.42871 17.5713 0 14.5859 0ZM18.8276 14.5864C18.8276 16.9248 16.9253 18.8276 14.5864 18.8276H5.41357C3.07471 18.8276 1.17236 16.9253 1.17236 14.5864V5.41406C1.17236 3.07519 3.07471 1.17285 5.41357 1.17285H14.5859C16.9243 1.17285 18.8271 3.07519 18.8271 5.41406V14.5864H18.8276ZM10 4.53125C6.98438 4.53125 4.53125 6.98438 4.53125 10C4.53125 13.0156 6.98438 15.4687 10 15.4687C13.0156 15.4687 15.4687 13.0156 15.4687 10C15.4687 6.98438 13.0156 4.53125 10 4.53125ZM10 14.2959C7.63135 14.2959 5.70361 12.3687 5.70361 10C5.70361 7.63135 7.63086 5.7041 10 5.7041C12.3691 5.7041 14.2959 7.63135 14.2959 10C14.2959 12.3687 12.3687 14.2959 10 14.2959ZM13.9839 4.20508C13.9839 3.31445 14.7085 2.58936 15.5996 2.58936C16.4907 2.58936 17.2153 3.31397 17.2153 4.20508C17.2153 5.09619 16.4907 5.82129 15.5996 5.82129C14.7085 5.82129 13.9839 5.0957 13.9839 4.20508ZM15.1562 4.20508C15.1562 4.44971 15.355 4.64844 15.5996 4.64844C15.8442 4.64844 16.043 4.44922 16.043 4.20508C16.043 3.96094 15.8442 3.76172 15.5996 3.76172C15.355 3.76172 15.1562 3.96045 15.1562 4.20508Z" fill="black"/>
</svg>
