<svg width="20" height="23" viewBox="0 0 20 23" fill="none" xmlns="http://www.w3.org/2000/svg">
<path fill-rule="evenodd" clip-rule="evenodd" d="M2.68402 0C1.20362 0 0 1.20362 0 2.68348C0 4.16333 1.20362 5.36695 2.68402 5.36695C4.16443 5.36695 5.3675 4.16333 5.3675 2.68348C5.3675 1.20362 4.16333 0 2.68402 0ZM2.68402 4.04988C1.93039 4.04988 1.31762 3.43711 1.31762 2.68348C1.31762 1.92984 1.93039 1.31707 2.68402 1.31707C3.43765 1.31707 4.05043 1.92984 4.05043 2.68348C4.05043 3.43711 3.43765 4.04988 2.68402 4.04988ZM4.57604 6.64838H0.791439C0.367213 6.64838 0.0224609 6.99368 0.0224609 7.41735V21.6804C0.0224609 22.1047 0.367761 22.4494 0.791439 22.4494H4.57604C5.00026 22.4494 5.34556 22.1041 5.34556 21.6804V7.4179C5.34556 6.99368 5.00026 6.64892 4.57604 6.64892V6.64838ZM4.02794 21.1329H1.33953V7.966H4.02794V21.1329ZM14.3475 7.18332C15.5303 7.16139 16.6802 7.56534 17.5851 8.32062C19.1197 9.60151 20 11.482 20 13.4793V21.8054C20 22.1617 19.7111 22.4505 19.3549 22.4505H15.5785C15.2222 22.4505 14.9334 22.1617 14.9334 21.8054V13.2178C14.9334 12.4631 14.308 11.852 13.5483 11.8745C12.8177 11.8958 12.245 12.5152 12.245 13.2463V21.7917C12.245 22.1556 11.9501 22.4505 11.5862 22.4505H7.65687C7.25073 22.4505 6.92188 22.1217 6.92188 21.7155V7.38337C6.92188 6.97723 7.25073 6.64838 7.65687 6.64838H11.51C11.9161 6.64838 12.245 6.97723 12.245 7.38337V7.69469C12.8956 7.37405 13.613 7.19702 14.3475 7.18332ZM16.251 21.1329H18.6824H18.6835V13.4793C18.6835 11.8739 17.9759 10.3623 16.7416 9.33185C16.08 8.77937 15.2392 8.48395 14.3727 8.50039C13.5067 8.51683 12.6725 8.84185 12.0235 9.41626C11.7511 9.65742 11.3346 9.63221 11.094 9.3598C10.9827 9.23484 10.929 9.07863 10.929 8.92352H10.9279V7.966H8.2395V21.1329H10.9279V13.2178C10.9279 11.75 12.1217 10.5563 13.5895 10.5563C15.0573 10.5563 16.251 11.75 16.251 13.2178V21.1329Z" fill="white"/>
</svg>
