<svg width="84" height="46" viewBox="0 0 84 46" fill="none" xmlns="http://www.w3.org/2000/svg">
<path fill-rule="evenodd" clip-rule="evenodd" d="M6.03112 20.2616C6.63709 21.0649 7.91424 21.1759 8.54806 20.3558C8.98375 19.8528 9.31651 19.5059 9.81205 19.258C11.0351 18.5749 12.542 18.4952 13.879 18.8613C15.863 19.616 17.6022 21.1011 18.8085 23.2468C20.1156 25.2328 20.7945 27.5 20.4621 29.5988C20.2116 30.8683 19.4001 32.1293 18.1791 32.8159C17.8147 33.0363 17.3191 33.2842 16.7954 33.4036C15.7445 33.6445 15.0359 34.7493 15.6736 35.6791L19.4925 41.8024C19.9076 42.3783 20.8202 42.7097 21.5477 42.2745C24.1262 40.8751 26.9274 39.8297 29.9492 39.1348C39.5494 36.9334 49.1968 39.0252 56.7685 44.0163C57.4471 44.5315 58.3655 44.3237 58.9338 43.7876L67.8865 33.6581C68.2791 33.5663 68.6738 33.4779 69.1319 33.6426C69.8387 34.2863 70.3849 34.8345 70.3382 35.7883C70.3289 36.3295 70.056 36.9313 70.0165 37.3405C69.7229 39.0212 71.0097 40.3431 72.7506 40.0797C74.357 39.8459 76.0192 38.6578 77.0887 37.3346C78.19 36.138 79.1699 34.4367 79.1978 32.8133C79.2277 31.1933 77.7091 30.0586 76.03 30.5806C75.5028 30.702 75.0072 30.9499 74.5117 31.1979C73.4607 31.4387 72.9146 30.8905 72.2042 30.2489C71.849 29.9281 71.8583 29.3869 72.0621 29.0711L81.3194 18.4662C82.0187 17.9025 81.9047 16.8533 81.2275 16.3327C64.8815 4.20268 43.111 -1.03032 21.5486 3.91285C14.581 5.50906 8.24968 8.04055 2.36509 11.2744C1.63764 11.7096 1.42459 12.5665 1.73879 13.3019L6.03262 20.2561L6.03112 20.2616Z" stroke="#191919" stroke-width="3" stroke-miterlimit="10"/>
</svg>
