<svg width="32" height="32" viewBox="0 0 32 32" fill="none" xmlns="http://www.w3.org/2000/svg">
<g clip-path="url(#clip0_650_559)">
<path fill-rule="evenodd" clip-rule="evenodd" d="M1.81472 15.0213C2.03269 15.3167 2.48957 15.3605 2.71515 15.0614C2.8691 14.8783 2.98714 14.7515 3.16491 14.6613C3.60069 14.4132 4.13836 14.3872 4.61643 14.5254C5.32643 14.807 5.95138 15.3546 6.38667 16.1451C6.85844 16.8771 7.10526 17.7088 6.99086 18.477C6.90309 18.9419 6.61713 19.4039 6.18135 19.6519C6.0513 19.7305 5.87561 19.8213 5.68791 19.8639C5.31326 19.9504 5.06169 20.3534 5.29299 20.6963L6.66896 22.9489C6.81802 23.1615 7.14485 23.2839 7.40418 23.1253C8.32216 22.6184 9.32084 22.2391 10.4004 21.9909C13.8249 21.2031 17.2777 21.99 19.9912 23.8365C20.2352 24.0281 20.5634 23.9523 20.7638 23.7584L23.9424 20.062C24.0829 20.0289 24.2242 19.9971 24.3859 20.0584C24.6411 20.2968 24.8366 20.4986 24.8205 20.8475C24.8177 21.0464 24.7214 21.2655 24.7088 21.4168C24.6083 22.033 25.0703 22.52 25.6916 22.4262C26.2652 22.3439 26.8555 21.9107 27.235 21.4285C27.6258 20.9931 27.9729 20.3696 27.9797 19.7736C27.9874 19.179 27.4426 18.7612 26.843 18.9473C26.6553 18.9899 26.4796 19.0807 26.3018 19.1709C25.9272 19.2574 25.7296 19.055 25.4752 18.818C25.3486 18.699 25.35 18.5009 25.4217 18.3849L28.7078 14.5162C28.9559 14.3107 28.9136 13.9245 28.6704 13.7342C22.8053 9.25231 15.0168 7.28884 7.32375 9.05852C4.83762 9.62992 2.58148 10.545 0.485654 11.7194C0.226323 11.8781 0.152522 12.1909 0.266427 12.4611L1.81472 15.0213Z" fill="white"/>
</g>
<defs>
<clipPath id="clip0_650_559">
<rect width="24" height="22" fill="white" transform="translate(31.7847 19.0527) rotate(150)"/>
</clipPath>
</defs>
</svg>
