<svg width="84" height="49" viewBox="0 0 84 49" fill="none" xmlns="http://www.w3.org/2000/svg">
<path fill-rule="evenodd" clip-rule="evenodd" d="M6.03111 21.5124C6.63709 22.3595 7.91423 22.4766 8.54806 21.6117C8.98374 21.0813 9.31651 20.7155 9.81205 20.454C11.035 19.7337 12.542 19.6497 13.879 20.0357C15.863 20.8316 17.6022 22.3977 18.8085 24.6605C20.1156 26.7549 20.7945 29.1457 20.4621 31.359C20.2116 32.6978 19.4001 34.0276 18.1791 34.7517C17.8147 34.984 17.3191 35.2455 16.7954 35.3714C15.7445 35.6254 15.0359 36.7906 15.6736 37.7711L19.4925 44.2285C19.9076 44.8357 20.8202 45.1852 21.5477 44.7263C24.1262 43.2506 26.9274 42.1482 29.9492 41.4153C39.5494 39.0938 49.1967 41.2997 56.7685 46.5632C57.4471 47.1064 58.3655 46.8873 58.9338 46.322L67.8865 35.6398C68.2791 35.5429 68.6738 35.4498 69.1319 35.6235C69.8387 36.3022 70.3849 36.8804 70.3382 37.8862C70.3289 38.4569 70.056 39.0916 70.0165 39.5231C69.7229 41.2955 71.0097 42.6895 72.7506 42.4117C74.357 42.1652 76.0192 40.9123 77.0887 39.5169C78.1899 38.255 79.1699 36.4609 79.1978 34.7489C79.2277 33.0405 77.7091 31.844 76.03 32.3944C75.5028 32.5224 75.0072 32.7839 74.5117 33.0454C73.4607 33.2994 72.9146 32.7212 72.2042 32.0446C71.849 31.7062 71.8583 31.1356 72.0621 30.8026L81.3194 19.6191C82.0187 19.0246 81.9047 17.9182 81.2275 17.3691C64.8815 4.57734 43.111 -0.941158 21.5486 4.2717C14.581 5.95499 8.24967 8.6246 2.36509 12.0349C1.63763 12.4938 1.42458 13.3974 1.73878 14.173L6.03262 21.5066L6.03111 21.5124Z" stroke="white" stroke-width="3" stroke-miterlimit="10"/>
</svg>
