<svg width="101" height="49" viewBox="0 0 101 49" fill="none" xmlns="http://www.w3.org/2000/svg">
<path fill-rule="evenodd" clip-rule="evenodd" d="M3 8.66167C3 5.56232 5.57033 3 8.80303 3H91.9242C95.1569 3 97.7273 5.56232 97.7273 8.66167V39.6559C97.7273 42.7553 95.1569 45.3176 91.9242 45.3176H8.80303C5.57033 45.3176 3 42.7553 3 39.6559V8.66167ZM8.80303 0C3.96903 0 0 3.85046 0 8.66167V39.6559C0 44.4672 3.96903 48.3176 8.80303 48.3176H91.9242C96.7582 48.3176 100.727 44.4672 100.727 39.6559V8.66167C100.727 3.85046 96.7582 0 91.9242 0H8.80303ZM29.689 36.6399L23.8709 28.6164C23.2193 28.6907 22.5375 28.7204 21.833 28.7204H14.9996V36.6399H12.3103V11.678H21.8406C25.0906 11.678 27.636 12.4358 29.4769 13.9588C31.3178 15.4817 32.2421 17.5693 32.2421 20.2364C32.2421 22.1828 31.7421 23.8321 30.7345 25.1767C29.7269 26.5214 28.2951 27.4872 26.4239 28.0815L32.6436 36.6399H29.6966H29.689ZM27.5451 24.835C28.8784 23.7429 29.5451 22.2051 29.5451 20.2364C29.5451 18.2677 28.8784 16.663 27.5451 15.5857C26.2118 14.5011 24.2875 13.9662 21.7648 13.9662H14.9996V26.4843H21.7648C24.2875 26.4843 26.2118 25.9345 27.5451 24.8424V24.835ZM38.5602 13.9589V23.7654H51.7268V26.0461H38.5602V36.64H35.8708V11.6782H53.3253V13.9589H38.5602ZM58.8556 11.6782H56.1663V36.64H58.8556V11.6782ZM64.416 11.6782H74.7796C77.469 11.6782 79.8478 12.2057 81.9084 13.268C83.969 14.323 85.5675 15.8014 86.7114 17.6884C87.8478 19.5753 88.4236 21.7372 88.4236 24.1591C88.4236 26.581 87.8554 28.7429 86.7114 30.6299C85.5751 32.5169 83.969 33.9953 81.9084 35.0502C79.8478 36.1051 77.469 36.64 74.7796 36.64H64.416V11.6782ZM74.6357 34.3593C76.863 34.3593 78.8175 33.9284 80.4917 33.0592C82.166 32.19 83.4614 30.9939 84.3857 29.4561C85.3099 27.9257 85.7645 26.1575 85.7645 24.1591C85.7645 22.1607 85.3024 20.4 84.3857 18.8622C83.4614 17.3318 82.166 16.1282 80.4917 15.259C78.8175 14.3898 76.8705 13.9589 74.6357 13.9589H67.1054V34.3593H74.6357Z" fill="white"/>
</svg>
