<svg width="100" height="53" viewBox="0 0 100 53" fill="none" xmlns="http://www.w3.org/2000/svg">
<g clip-path="url(#clip0_482_129)">
<path d="M66.3458 20.1961L50 3.85034L33.6542 20.1961L17.3084 3.85034L1.92517 19.2336L0 17.3084L17.3084 0L33.6542 16.3458L50 0L66.3458 16.3458L82.6916 0L100 17.3084L98.0748 19.2336L82.6916 3.85034L66.3458 20.1961Z" fill="white"/>
<path d="M66.3458 36.5419L50 20.196L33.6542 36.5419L17.3084 20.196L1.92517 35.5793L0 33.6541L17.3084 16.3457L33.6542 32.6915L50 16.3457L66.3458 32.6915L82.6916 16.3457L100 33.6541L98.0748 35.5793L82.6916 20.196L66.3458 36.5419Z" fill="white"/>
<path d="M66.3458 52.8876L50 36.5418L33.6542 52.8876L17.3084 36.5418L1.92517 51.925L0 49.9998L17.3084 32.6914L33.6542 49.0372L50 32.6914L66.3458 49.0372L82.6916 32.6914L100 49.9998L98.0748 51.925L82.6916 36.5418L66.3458 52.8876Z" fill="white"/>
</g>
<defs>
<clipPath id="clip0_482_129">
<rect width="100" height="52.8877" fill="white"/>
</clipPath>
</defs>
</svg>
