<svg width="12" height="20" viewBox="0 0 12 20" fill="none" xmlns="http://www.w3.org/2000/svg">
<path d="M7.01758 19.961H3.82119C3.28708 19.961 2.85286 19.5268 2.85286 18.9927V11.7827H0.987855C0.453742 11.7827 0.0195312 11.3484 0.0195312 10.8143V7.72466C0.0195312 7.19055 0.453742 6.75634 0.987855 6.75634H2.85286V5.20906C2.85286 3.67495 3.33435 2.36988 4.24565 1.4347C5.16086 0.496101 6.4401 0 7.94448 0L10.3821 0.00389864C10.9152 0.00487329 11.349 0.439084 11.349 0.972222V3.84064C11.349 4.37476 10.9148 4.80897 10.3811 4.80897H8.7398C8.23932 4.80945 8.11164 4.90984 8.08483 4.94055C8.04 4.99172 7.98639 5.13548 7.98639 5.53411V6.75634H10.2583C10.4294 6.75634 10.5951 6.79873 10.7374 6.87817C11.0444 7.04971 11.2354 7.37427 11.2354 7.72515L11.2344 10.8148C11.2344 11.3484 10.8002 11.7827 10.2661 11.7827H7.98639V18.9927C7.98639 19.5268 7.55218 19.961 7.01807 19.961H7.01758ZM4.02294 18.7909H6.81534V11.2588C6.81534 10.902 7.1053 10.6126 7.46203 10.6126H10.0634L10.0644 7.9269H7.46154C7.1053 7.9269 6.81534 7.63694 6.81534 7.28021V5.53411C6.81534 5.077 6.86164 4.55702 7.20715 4.16618C7.62382 3.69347 8.28123 3.63938 8.73932 3.63938L10.1789 3.6384V1.17398L7.944 1.17008C5.52587 1.17008 4.02343 2.71832 4.02343 5.20955V7.28021C4.02343 7.63645 3.73347 7.9269 3.37723 7.9269H1.18961V10.6126H3.37674C3.73298 10.6126 4.02294 10.9025 4.02294 11.2588V18.7909Z" fill="black"/>
</svg>
