<svg width="1529" height="300" viewBox="0 0 1529 300" fill="none" xmlns="http://www.w3.org/2000/svg">
<path d="M675.777 170.082V300C672.43 299.894 669.082 299.718 665.804 299.365V180.071C665.804 174.565 661.294 170.082 655.832 170.082H532.316C531.893 166.765 531.54 163.447 531.329 160.094H665.804C671.302 160.094 675.777 164.612 675.777 170.082Z" fill="#C9961A"/>
<path d="M655.797 190.094V298.023C652.414 297.459 649.101 296.788 645.824 295.976V200.082C645.824 194.576 641.313 190.094 635.851 190.094H536.404C535.488 186.812 534.677 183.459 533.972 180.106H645.859C651.357 180.106 655.832 184.623 655.832 190.094H655.797Z" fill="#C9961A"/>
<path d="M635.816 210.106V293.259C632.433 292.2 629.121 290.965 625.844 289.694V220.13C625.844 214.624 621.333 210.141 615.871 210.141H543.453C542.008 206.859 540.704 203.541 539.506 200.153H625.844C631.341 200.153 635.816 204.671 635.816 210.141V210.106Z" fill="#C9961A"/>
<path d="M615.834 230.118V285.353C612.416 283.694 609.103 281.894 605.861 280.024V240.106C605.861 234.6 601.35 230.118 595.888 230.118H555.926C555.327 230.118 554.763 230.188 554.164 230.294C552.085 226.976 550.076 223.588 548.244 220.094H605.861C611.359 220.094 615.834 224.612 615.834 230.082V230.118Z" fill="#C9961A"/>
<path d="M585.881 240.106C591.378 240.106 595.854 244.624 595.854 250.094V270.106C595.854 271.235 595.642 272.259 595.29 273.282C591.554 270.706 587.96 267.953 584.506 265.023C585.352 263.576 585.881 261.882 585.881 260.082C585.881 254.576 581.37 250.094 575.908 250.094C573.934 250.094 572.137 250.694 570.586 251.682C567.45 248.294 564.49 244.729 561.706 241.059C563.01 240.459 564.419 240.071 565.935 240.071H585.916L585.881 240.106Z" fill="#C9961A"/>
<path d="M696.323 160.059H830.234C830.023 163.412 829.671 166.765 829.248 170.047H706.895C701.08 170.047 696.323 174.565 696.323 180.035V299.294C692.834 299.647 689.31 299.859 685.751 299.965V170.082C685.751 164.576 690.508 160.094 696.323 160.094V160.059Z" fill="#C9961A"/>
<path d="M715.74 180.071H827.627C826.957 183.459 826.112 186.776 825.195 190.059H725.748C720.251 190.059 715.775 194.576 715.775 200.047V295.941C712.498 296.718 709.15 297.423 705.803 297.988V190.059C705.803 184.553 710.313 180.071 715.775 180.071H715.74Z" fill="#C9961A"/>
<path d="M735.721 200.082H822.059C820.86 203.471 819.557 206.824 818.112 210.071H745.694C740.196 210.071 735.721 214.588 735.721 220.059V289.624C732.443 290.929 729.131 292.129 725.748 293.188V210.035C725.748 204.529 730.259 200.047 735.721 200.047V200.082Z" fill="#C9961A"/>
<path d="M755.701 220.094H813.318C811.486 223.588 809.512 226.976 807.398 230.294C806.834 230.188 806.235 230.118 805.636 230.118H765.674C760.177 230.118 755.701 234.635 755.701 240.106V280.024C752.424 281.929 749.111 283.729 745.728 285.353V230.118C745.728 224.612 750.239 220.129 755.701 220.129V220.094Z" fill="#C9961A"/>
<path d="M765.675 250.129C765.675 244.623 770.185 240.141 775.648 240.141H795.629C797.144 240.141 798.554 240.494 799.857 241.129C797.038 244.8 794.113 248.329 790.977 251.753C789.426 250.765 787.594 250.165 785.656 250.165C780.158 250.165 775.683 254.682 775.683 260.153C775.683 261.953 776.211 263.612 777.057 265.094C773.604 267.988 770.009 270.741 766.274 273.353C765.921 272.365 765.71 271.306 765.71 270.176V250.165L765.675 250.129Z" fill="#C9961A"/>
<path d="M532.661 140.217H1526.79C1527.5 143.467 1528.02 146.716 1528.02 150H531.437C531.437 146.716 531.955 143.432 532.661 140.217Z" fill="url(#paint0_linear_27_362)"/>
<path d="M533.938 120.071H827.592C828.261 123.353 828.79 126.706 829.213 130.059H532.281C532.739 126.706 533.268 123.353 533.902 120.071H533.938Z" fill="#C9961A"/>
<path d="M539.505 100.059H822.059C823.222 103.341 824.244 106.694 825.195 110.047H536.369C537.285 106.659 538.342 103.341 539.505 100.059Z" fill="#C9961A"/>
<path d="M9.76001 80.4348H812.753C814.754 83.6496 816.592 86.8989 818.348 90.2174H-0.000366211C3.02167 86.8989 6.28876 83.615 9.76001 80.4348Z" fill="url(#paint1_linear_27_362)"/>
<path d="M560.895 60.0353H800.632C803.064 63.2823 805.319 66.6 807.469 70.0235H554.023C556.173 66.6 558.463 63.247 560.86 60.0353H560.895Z" fill="#C9961A"/>
<path d="M578.938 40.0236H782.59C786.008 43.2 789.286 46.553 792.422 50.0118H569.106C572.208 46.5177 575.52 43.2 578.938 40.0236Z" fill="#C9961A"/>
<path d="M609.618 19.5652H1286.96C1304.6 22.8683 1321.62 26.4787 1337.83 30.4347H591.21C597.091 26.4787 603.211 22.8683 609.618 19.5652Z" fill="url(#paint2_linear_27_362)"/>
<path d="M680.782 0C699.742 0 717.89 3.56471 734.594 9.98823H627.006C643.71 3.56471 661.823 0 680.818 0H680.782Z" fill="#C9961A"/>
<defs>
<linearGradient id="paint0_linear_27_362" x1="1528.02" y1="145.091" x2="531.437" y2="145.091" gradientUnits="userSpaceOnUse">
<stop offset="0.22" stop-opacity="0"/>
<stop offset="0.24" stop-color="#0A0701" stop-opacity="0.05"/>
<stop offset="0.36" stop-color="#433208" stop-opacity="0.34"/>
<stop offset="0.47" stop-color="#73560E" stop-opacity="0.57"/>
<stop offset="0.58" stop-color="#987113" stop-opacity="0.76"/>
<stop offset="0.68" stop-color="#B38517" stop-opacity="0.89"/>
<stop offset="0.77" stop-color="#C39119" stop-opacity="0.97"/>
<stop offset="0.84" stop-color="#C9961A"/>
</linearGradient>
<linearGradient id="paint1_linear_27_362" x1="-0.000366211" y1="85.3088" x2="818.348" y2="85.3088" gradientUnits="userSpaceOnUse">
<stop offset="0.12" stop-opacity="0"/>
<stop offset="0.14" stop-color="#0A0701" stop-opacity="0.05"/>
<stop offset="0.28" stop-color="#433208" stop-opacity="0.34"/>
<stop offset="0.41" stop-color="#73560E" stop-opacity="0.57"/>
<stop offset="0.54" stop-color="#987113" stop-opacity="0.76"/>
<stop offset="0.65" stop-color="#B38517" stop-opacity="0.89"/>
<stop offset="0.76" stop-color="#C39119" stop-opacity="0.97"/>
<stop offset="0.84" stop-color="#C9961A"/>
</linearGradient>
<linearGradient id="paint2_linear_27_362" x1="1337.83" y1="25.0192" x2="591.21" y2="25.0192" gradientUnits="userSpaceOnUse">
<stop offset="0.21" stop-opacity="0"/>
<stop offset="0.23" stop-color="#0A0701" stop-opacity="0.05"/>
<stop offset="0.35" stop-color="#433208" stop-opacity="0.34"/>
<stop offset="0.46" stop-color="#73560E" stop-opacity="0.57"/>
<stop offset="0.57" stop-color="#987113" stop-opacity="0.76"/>
<stop offset="0.68" stop-color="#B38517" stop-opacity="0.89"/>
<stop offset="0.77" stop-color="#C39119" stop-opacity="0.97"/>
<stop offset="0.84" stop-color="#C9961A"/>
</linearGradient>
</defs>
</svg>
