<svg width="150" height="38" viewBox="0 0 150 38" fill="none" xmlns="http://www.w3.org/2000/svg">
<path d="M149.723 1.22955V26.416H143.989V25.046C142.522 26.1752 140.836 26.7411 138.93 26.7411C136.498 26.7411 134.466 25.8992 132.838 24.2142C131.211 22.5304 130.395 20.4181 130.395 17.8798C130.395 15.3414 131.223 13.1573 132.876 11.5088C134.53 9.86028 136.652 9.03603 139.238 9.03603C140.847 9.03603 142.43 9.39648 143.988 10.1174V1.22955H149.722H149.723ZM143.989 21.7452V13.6148C142.947 12.9544 141.878 12.6229 140.783 12.6229C139.342 12.6229 138.219 13.0918 137.414 14.0294C136.61 14.9671 136.208 16.2829 136.208 17.9781C136.208 19.5409 136.607 20.7936 137.405 21.7364C138.203 22.6803 139.265 23.1517 140.59 23.1517C141.762 23.1517 142.895 22.6829 143.989 21.7452Z" fill="#C9961A"/>
<path d="M59.5838 14.6243C60.7608 15.2015 62.3577 15.8266 64.3729 16.4996C64.6928 16.6068 64.9912 16.7101 65.2733 16.8109L70.4498 11.9776C69.4145 11.5264 68.1673 11.0487 66.7014 10.5459C64.7063 9.86023 63.451 9.30191 62.9367 8.86961C62.4211 8.43732 62.1646 7.97982 62.1646 7.49964C62.1646 6.87451 62.5223 6.3729 63.2364 5.99481C64.4688 5.34196 66.1182 5.4264 66.1236 5.4264C67.6138 5.4264 70.4026 6.33509 74.5857 8.21802C75.7533 7.1291 76.9209 6.04018 78.0884 4.95125C76.4376 3.74638 73.7137 2.10795 69.9895 1.29882C68.5034 0.976178 67.1387 0.846364 65.9603 0.814856C65.7767 0.811075 65.6364 0.812335 65.5432 0.812335C62.4143 0.811075 59.9158 1.47527 58.0504 2.80365C56.1836 4.13204 55.2509 5.87886 55.2509 8.04284C55.2509 9.71403 55.6787 11.084 56.5345 12.154C57.3903 13.224 58.4067 14.047 59.5838 14.6243Z" fill="white"/>
<path d="M72.6918 13.1711L67.6759 17.8545C67.8891 17.9792 68.0606 18.0977 68.1875 18.2099C68.7152 18.6787 68.9798 19.1765 68.9798 19.7059C68.9798 21.2548 67.6597 22.0299 65.0221 22.0299C64.4431 22.0299 63.8748 21.9934 63.32 21.9228L59.3083 25.6685C61.3452 26.3188 63.4239 26.6465 65.5432 26.6465C68.6451 26.6465 71.1463 25.9559 73.0441 24.5733C74.9433 23.1907 75.8922 21.3342 75.8922 19.0026C75.8922 17.368 75.4576 16.0156 74.5883 14.9456C74.0254 14.2524 73.3924 13.6626 72.6918 13.1711Z" fill="#C9961A"/>
<path d="M126.805 10.8244C125.537 9.69392 123.957 9.12803 122.064 9.12803C119.799 9.12803 117.823 10.0531 116.137 11.9045V9.48849H110.403V22.1548C109.971 22.5493 109.064 23.2803 108.238 23.2614C108.121 23.2588 107.891 23.2538 107.686 23.1114C107.424 22.9299 107.292 22.582 107.292 22.0703V14.308C107.292 10.8547 104.718 9.12677 99.5681 9.12677C96.6971 9.12677 94.0649 9.81743 91.6717 11.2V15.5633C93.718 13.664 95.9587 12.7149 98.3911 12.7149C100.63 12.7149 101.686 13.664 101.558 15.5633C96.3826 16.9963 93.2847 18.1671 92.2602 19.0758C91.2816 19.9442 90.7727 21.0747 90.7295 22.4661C89.9345 22.7131 89.1745 22.8379 88.451 22.8379C87.575 22.8379 86.8906 22.5946 86.3952 22.1082C85.8999 21.6217 85.6515 20.9575 85.6515 20.1156C85.6447 16.5577 85.638 12.9998 85.6312 9.44312C85.6312 9.43807 85.6312 9.43303 85.6312 9.42799H88.1702V5.85874H85.5826C85.5867 5.28151 85.5907 4.70302 85.5975 4.12075C85.6096 3.11879 85.6258 2.12439 85.6474 1.13629C82.6481 3.94052 79.6488 6.74475 76.6495 9.54898C77.7658 9.54394 78.8808 9.54016 79.9971 9.53512C79.9701 13.1586 79.9431 16.7807 79.9175 20.4042C79.9175 22.4951 80.5357 24.0818 81.7708 25.1632C83.0058 26.2446 84.7444 26.7852 86.9838 26.7852C88.6953 26.7852 90.4663 26.4311 92.2939 25.7215V25.6421C93.2699 26.4349 94.4456 26.8319 95.8237 26.8319C97.8323 26.8319 99.8327 26.1954 101.829 24.9212C101.944 25.356 102.144 25.7165 102.428 26.0038C103.173 26.7525 104.256 26.8079 105.035 26.8331C107.297 26.9062 109.315 25.9635 110.404 25.3485V26.508H116.139V15.528C117.452 13.6526 118.784 12.7162 120.135 12.7162C122.028 12.7162 122.974 13.853 122.974 16.1279V26.508H128.708V15.6792C128.708 13.5732 128.074 11.955 126.806 10.8244H126.805ZM101.556 22.3753C100.526 23.2311 99.4709 23.6596 98.3897 23.6596C97.8741 23.6596 97.4368 23.4819 97.0764 23.1265C96.716 22.7711 96.5351 22.3451 96.5351 21.851C96.5351 21.0797 96.8928 20.4433 97.6068 19.9429C98.3209 19.4426 99.637 18.8792 101.555 18.2516V22.3753H101.556Z" fill="#C9961A"/>
<path d="M31.8841 9.30434V20.1432C31.8841 20.515 31.5007 21.0947 30.7354 21.8812C29.97 22.6676 29.0454 23.0608 27.9642 23.0608C26.0461 23.0608 25.0877 21.9807 25.0877 19.8193V9.30434H19.3537V20.1936C19.3537 20.9422 19.4388 21.6304 19.6088 22.258C18.6775 22.8655 17.9782 23.1705 17.5139 23.1705C16.8835 23.1705 16.5677 22.7735 16.5677 21.9795V14.2171C16.5677 10.7638 13.9936 9.03589 8.84402 9.03589C5.97295 9.03589 3.3408 9.72655 0.946223 11.1091V15.4724C2.99255 13.5731 5.23325 12.624 7.66562 12.624C9.90497 12.624 10.9605 13.5731 10.8323 15.4724C5.65709 16.9054 2.55926 18.0762 1.53474 18.9849C0.511582 19.8936 0 21.0884 0 22.5693C0 23.6771 0.495384 24.6488 1.48615 25.4857C2.47692 26.3226 3.68096 26.741 5.09692 26.741C7.10545 26.741 9.10588 26.1045 11.1023 24.8303C11.217 25.2651 11.4168 25.6256 11.7016 25.9129C12.471 26.6855 13.6075 26.7221 14.3081 26.7422C17.0928 26.8204 19.9949 25.1517 20.8844 24.6098C20.987 24.7219 21.0936 24.8316 21.2084 24.9375C22.4434 26.0793 24.0524 26.6502 26.0353 26.6502C28.2747 26.6502 30.2373 25.7302 31.9246 23.8914V26.3251H37.6586V9.30434H31.8854H31.8841ZM10.8323 22.2832C9.80239 23.139 8.74683 23.5675 7.66562 23.5675C7.15134 23.5675 6.71265 23.3898 6.35225 23.0344C5.99185 22.6789 5.81097 22.253 5.81097 21.7589C5.81097 20.9876 6.16867 20.3511 6.88273 19.8508C7.59678 19.3504 8.91286 18.787 10.831 18.1594V22.2832H10.8323Z" fill="white"/>
<path d="M55.8111 18.7859C55.5074 19.1691 52.5027 22.8858 49.4588 22.7005C49.0431 22.6753 48.0698 22.6261 47.403 21.9708C46.9077 21.4843 46.6593 20.8201 46.6593 19.9782C46.6525 16.4203 46.6458 12.8624 46.639 9.30573C46.639 9.30068 46.639 9.29564 46.639 9.2906H49.17V5.72135H46.5918C46.5958 5.14412 46.5999 4.56563 46.6066 3.98336C46.6188 2.9814 46.635 1.987 46.6566 0.998901C43.6573 3.80313 40.658 6.60736 37.6587 9.41159C38.775 9.40655 39.8899 9.40277 41.0062 9.39773C40.9792 13.0212 40.9523 16.6434 40.9266 20.2668C40.9266 22.3577 41.5448 23.9444 42.7799 25.0258C44.4645 26.5004 46.7133 26.6063 47.9929 26.6478C51.763 26.7701 54.607 25.0523 55.8124 24.2116C56.1485 24.3856 56.4846 24.5469 56.8234 24.7019L60.5408 21.231C59.1654 20.713 57.5888 19.8988 55.8138 18.7847L55.8111 18.7859Z" fill="white"/>
<path d="M54.6164 29.6488H55.4033L58.9075 36.9877H57.7615L56.7208 34.825H53.3867L52.4094 36.9877H51.2594L54.6164 29.6488ZM56.2605 33.8949L54.9997 31.2519L53.8308 33.8949H56.2605Z" fill="#C6941A"/>
<path d="M62.9016 36.9862V36.3699C62.6856 36.5904 62.4386 36.7631 62.1606 36.8854C61.8825 37.0076 61.6058 37.0694 61.3304 37.0694C61.0065 37.0694 60.7068 36.9937 60.4328 36.8425C60.1588 36.6913 59.9523 36.4858 59.8119 36.2262C59.6715 35.9666 59.6027 35.5355 59.6027 34.9331V32.1805H60.6204V34.9192C60.6204 35.4234 60.6987 35.775 60.8526 35.9754C61.0065 36.1758 61.2778 36.2754 61.6665 36.2754C62.1511 36.2754 62.5642 36.0535 62.903 35.6124V32.1805H63.9207V36.9862H62.903H62.9016Z" fill="#C6941A"/>
<path d="M64.6307 32.9444L66.5434 31.1901V32.1819H68.1713V33.039H66.5434V35.3907C66.5434 35.9402 66.7877 36.215 67.2764 36.215C67.6422 36.215 68.0282 36.1016 68.4345 35.876V36.7645C68.0431 36.9699 67.6152 37.0733 67.1535 37.0733C66.6919 37.0733 66.2991 36.946 65.99 36.6914C65.8928 36.6145 65.8132 36.5288 65.7497 36.433C65.6863 36.3372 65.6323 36.2112 65.5905 36.0575C65.5486 35.9037 65.5257 35.6075 65.5257 35.1727V33.0415H64.6307V32.947V32.9444Z" fill="#C6941A"/>
<path d="M71.6282 32.1705C72.4111 32.1705 73.0617 32.4062 73.58 32.8788C74.0983 33.3515 74.3575 33.9438 74.3575 34.6572C74.3575 35.3705 74.0943 35.9263 73.5692 36.3838C73.0441 36.8413 72.3814 37.0707 71.5836 37.0707C70.7859 37.0707 70.1663 36.8388 69.648 36.3737C69.1296 35.9087 68.8705 35.3289 68.8705 34.632C68.8705 33.935 69.1323 33.3426 69.6561 32.8738C70.1798 32.4062 70.8372 32.1718 71.6282 32.1718V32.1705ZM71.5728 33.0276C71.0842 33.0276 70.6833 33.1775 70.3701 33.4762C70.057 33.7762 69.9004 34.1568 69.9004 34.6206C69.9004 35.0844 70.061 35.4562 70.3809 35.7461C70.7008 36.036 71.1139 36.1822 71.6174 36.1822C72.1208 36.1822 72.5258 36.0347 72.8457 35.741C73.1643 35.4461 73.3235 35.0693 73.3235 34.6105C73.3235 34.1518 73.1575 33.7762 72.8255 33.4775C72.4934 33.1788 72.0763 33.0288 71.5728 33.0288V33.0276Z" fill="#C6941A"/>
<path d="M79.7068 33.4976V36.9862H78.6837V34.3118C78.6837 33.7787 78.6081 33.4081 78.4542 33.1964C78.3003 32.9847 78.0344 32.8801 77.6537 32.8801C77.4418 32.8801 77.2461 32.9254 77.0693 33.0162C76.8925 33.1069 76.69 33.267 76.4619 33.4964V36.9849H75.4441V32.1793H76.4619V32.8107C76.9802 32.3268 77.4877 32.0848 77.9831 32.0848C78.6351 32.0848 79.1413 32.3734 79.499 32.9519C80.0443 32.3671 80.6125 32.0747 81.2051 32.0747C81.7046 32.0747 82.1163 32.2449 82.4389 32.5864C82.7615 32.9279 82.9221 33.4485 82.9221 34.1479V36.9837H81.9043V34.1366C81.9043 33.7358 81.8166 33.4296 81.6411 33.2178C81.4656 33.0061 81.2132 32.899 80.8866 32.899C80.4654 32.899 80.0713 33.0968 79.7068 33.4938V33.4976Z" fill="#C6941A"/>
<path d="M87.5547 34.0977V36.1394C87.5547 36.3032 87.6141 36.3852 87.7342 36.3852C87.8543 36.3852 88.0501 36.2995 88.3106 36.1293V36.7091C88.0798 36.8477 87.8935 36.9435 87.7544 36.9939C87.6154 37.0443 87.4683 37.0695 87.3158 37.0695C86.8798 37.0695 86.622 36.9095 86.5437 36.5893C86.1104 36.9032 85.6501 37.0594 85.1614 37.0594C84.8037 37.0594 84.5054 36.9485 84.2665 36.728C84.0276 36.5074 83.9088 36.2289 83.9088 35.8949C83.9088 35.5924 84.0262 35.3214 84.2584 35.0832C84.4906 34.845 84.8226 34.656 85.2519 34.5161L86.5558 34.0977V33.8418C86.5558 33.2646 86.2467 32.9747 85.6271 32.9747C85.071 32.9747 84.5311 33.2432 84.0047 33.7788V32.739C84.4002 32.303 84.9684 32.0862 85.7108 32.0862C86.2669 32.0862 86.7124 32.2223 87.0471 32.4933C87.1592 32.5802 87.2591 32.6962 87.3495 32.8411C87.4386 32.9848 87.4953 33.1297 87.5196 33.2747C87.5439 33.4196 87.556 33.6931 87.556 34.0977H87.5547ZM86.5531 36.0361V34.6106L85.8701 34.8564C85.5232 34.9849 85.2775 35.1148 85.1345 35.2458C84.9914 35.3769 84.9185 35.5395 84.9185 35.7336C84.9185 35.9277 84.986 36.094 85.1223 36.2188C85.2586 36.3436 85.4355 36.4066 85.6514 36.4066C85.9754 36.4066 86.2764 36.2831 86.5518 36.0361H86.5531Z" fill="#C6941A"/>
<path d="M88.4888 32.9444L90.4015 31.1901V32.1819H92.0293V33.039H90.4015V35.3907C90.4015 35.9402 90.6458 36.215 91.1344 36.215C91.5002 36.215 91.8863 36.1016 92.2926 35.876V36.7645C91.9011 36.9699 91.4732 37.0733 91.0116 37.0733C90.5499 37.0733 90.1571 36.946 89.848 36.6914C89.7509 36.6145 89.6712 36.5288 89.6078 36.433C89.5443 36.3372 89.4903 36.2112 89.4485 36.0575C89.4066 35.9037 89.3837 35.6075 89.3837 35.1727V33.0415H88.4888V32.947V32.9444Z" fill="#C6941A"/>
<path d="M93.5519 30.1603C93.7193 30.1603 93.8637 30.2145 93.9825 30.3216C94.1027 30.4288 94.1621 30.5624 94.1621 30.7186C94.1621 30.8749 94.1027 31.0035 93.9825 31.1156C93.8624 31.2278 93.7193 31.2833 93.5519 31.2833C93.3954 31.2833 93.2577 31.2266 93.1375 31.1131C93.0174 30.9997 92.958 30.8686 92.958 30.7186C92.958 30.5687 93.0174 30.4426 93.1375 30.3292C93.2577 30.2158 93.3954 30.1591 93.5519 30.1591V30.1603ZM93.0485 32.1819H94.0662V36.9875H93.0485V32.1819Z" fill="#C6941A"/>
<path d="M97.9983 32.1705C98.7812 32.1705 99.4318 32.4062 99.9501 32.8788C100.468 33.3515 100.728 33.9438 100.728 34.6572C100.728 35.3705 100.464 35.9263 99.9393 36.3838C99.4142 36.8413 98.7515 37.0707 97.9537 37.0707C97.156 37.0707 96.5364 36.8388 96.0181 36.3737C95.4998 35.9087 95.2406 35.3289 95.2406 34.632C95.2406 33.935 95.5025 33.3426 96.0262 32.8738C96.5499 32.405 97.2073 32.1718 97.9983 32.1718V32.1705ZM97.9429 33.0276C97.4543 33.0276 97.0534 33.1775 96.7402 33.4762C96.4271 33.7762 96.2705 34.1568 96.2705 34.6206C96.2705 35.0844 96.4311 35.4562 96.751 35.7461C97.0723 36.0372 97.484 36.1822 97.9875 36.1822C98.491 36.1822 98.8959 36.0347 99.2158 35.741C99.5357 35.4474 99.6937 35.0693 99.6937 34.6105C99.6937 34.1518 99.5276 33.7762 99.1956 33.4775C98.8635 33.1775 98.4464 33.0288 97.9429 33.0288V33.0276Z" fill="#C6941A"/>
<path d="M102.877 32.1819V32.7931C103.331 32.323 103.848 32.0886 104.426 32.0886C104.747 32.0886 105.044 32.1668 105.321 32.3205C105.598 32.4743 105.807 32.6885 105.95 32.9583C106.093 33.228 106.166 33.6552 106.166 34.24V36.9875H105.148V34.2501C105.148 33.7586 105.067 33.4082 104.908 33.1977C104.749 32.9872 104.479 32.8814 104.102 32.8814C103.622 32.8814 103.213 33.1057 102.877 33.5556V36.9875H101.836V32.1819H102.877Z" fill="#C6941A"/>
<path d="M112.845 33.9287L111.995 33.4473C111.461 33.1435 111.082 32.8436 110.857 32.5499C110.631 32.2563 110.518 31.9172 110.518 31.5341C110.518 30.9594 110.731 30.4931 111.159 30.1339C111.587 29.7759 112.14 29.5957 112.823 29.5957C113.506 29.5957 114.075 29.7671 114.619 30.1087V31.2946C114.056 30.7892 113.45 30.5359 112.8 30.5359C112.435 30.5359 112.135 30.6153 111.9 30.7728C111.665 30.9304 111.548 31.132 111.548 31.3791C111.548 31.5984 111.634 31.8025 111.807 31.9928C111.98 32.1844 112.259 32.3835 112.642 32.594L113.497 33.0666C114.45 33.5985 114.926 34.274 114.926 35.097C114.926 35.6818 114.717 36.157 114.297 36.5225C113.878 36.888 113.332 37.0707 112.661 37.0707C111.889 37.0707 111.186 36.8489 110.553 36.4065V35.0794C111.158 35.794 111.857 36.1519 112.651 36.1519C113.001 36.1519 113.293 36.0599 113.527 35.8784C113.76 35.6957 113.876 35.4676 113.876 35.1941C113.876 34.7504 113.533 34.3295 112.846 33.93L112.845 33.9287Z" fill="#C6941A"/>
<path d="M115.295 32.9444L117.208 31.1901V32.1819H118.835V33.039H117.208V35.3907C117.208 35.9402 117.452 36.215 117.941 36.215C118.306 36.215 118.692 36.1016 119.099 35.876V36.7645C118.707 36.9699 118.279 37.0733 117.818 37.0733C117.356 37.0733 116.963 36.946 116.654 36.6914C116.557 36.6145 116.477 36.5288 116.414 36.433C116.35 36.3372 116.296 36.2112 116.255 36.0575C116.211 35.9024 116.19 35.6075 116.19 35.1727V33.0415H115.295V32.947V32.9444Z" fill="#C6941A"/>
<path d="M123.066 34.0977V36.1394C123.066 36.3032 123.125 36.3852 123.245 36.3852C123.365 36.3852 123.561 36.2995 123.822 36.1293V36.7091C123.591 36.8477 123.405 36.9435 123.266 36.9939C123.127 37.0443 122.979 37.0695 122.827 37.0695C122.391 37.0695 122.133 36.9095 122.055 36.5893C121.621 36.9032 121.161 37.0594 120.673 37.0594C120.315 37.0594 120.017 36.9485 119.778 36.728C119.539 36.5062 119.42 36.2289 119.42 35.8949C119.42 35.5924 119.537 35.3214 119.77 35.0832C120.002 34.845 120.334 34.656 120.763 34.5161L122.067 34.0977V33.8418C122.067 33.2646 121.758 32.9747 121.138 32.9747C120.582 32.9747 120.042 33.2432 119.516 33.7788V32.739C119.911 32.303 120.48 32.0862 121.222 32.0862C121.778 32.0862 122.223 32.2223 122.558 32.4933C122.67 32.5802 122.77 32.6962 122.861 32.8411C122.95 32.9848 123.006 33.1297 123.031 33.2747C123.055 33.4183 123.067 33.6931 123.067 34.0977H123.066ZM122.064 36.0361V34.6106L121.381 34.8564C121.034 34.9849 120.789 35.1148 120.646 35.2458C120.502 35.3769 120.43 35.5395 120.43 35.7336C120.43 35.9277 120.497 36.094 120.633 36.2188C120.77 36.3436 120.947 36.4066 121.163 36.4066C121.486 36.4066 121.787 36.2831 122.063 36.0361H122.064Z" fill="#C6941A"/>
<path d="M125.74 32.1819V32.7931C126.195 32.323 126.712 32.0886 127.289 32.0886C127.611 32.0886 127.907 32.1668 128.184 32.3205C128.461 32.4755 128.67 32.6885 128.813 32.9583C128.956 33.228 129.029 33.6552 129.029 34.24V36.9875H128.011V34.2501C128.011 33.7586 127.93 33.4082 127.771 33.1977C127.611 32.9872 127.342 32.8814 126.965 32.8814C126.485 32.8814 126.076 33.1057 125.74 33.5556V36.9875H124.699V32.1819H125.74Z" fill="#C6941A"/>
<path d="M133.885 29.6902H134.908V36.9875H132.732C131.971 36.9875 131.364 36.7631 130.911 36.3132C130.457 35.8645 130.231 35.2608 130.231 34.5059C130.231 33.7989 130.468 33.2178 130.943 32.7616C131.418 32.3054 132.026 32.0772 132.764 32.0772C133.107 32.0772 133.48 32.1453 133.883 32.2814V29.6902H133.885ZM133.885 36.1721V33.1271C133.567 32.9771 133.247 32.9028 132.922 32.9028C132.415 32.9028 132.011 33.0578 131.711 33.3678C131.412 33.6779 131.261 34.0963 131.261 34.6218C131.261 35.1159 131.391 35.4978 131.652 35.7662C131.809 35.9263 131.975 36.0347 132.15 36.0901C132.326 36.1456 132.64 36.1733 133.095 36.1733H133.883L133.885 36.1721Z" fill="#C6941A"/>
<path d="M139.523 34.0977V36.1394C139.523 36.3032 139.582 36.3852 139.702 36.3852C139.822 36.3852 140.018 36.2995 140.279 36.1293V36.7091C140.048 36.8477 139.861 36.9435 139.722 36.9939C139.583 37.0443 139.436 37.0695 139.284 37.0695C138.848 37.0695 138.59 36.9095 138.512 36.5893C138.078 36.9032 137.618 37.0594 137.129 37.0594C136.772 37.0594 136.473 36.9485 136.235 36.728C135.996 36.5062 135.877 36.2289 135.877 35.8949C135.877 35.5924 135.994 35.3214 136.226 35.0832C136.459 34.845 136.791 34.656 137.22 34.5161L138.524 34.0977V33.8418C138.524 33.2646 138.215 32.9747 137.595 32.9747C137.039 32.9747 136.499 33.2432 135.973 33.7788V32.739C136.368 32.303 136.936 32.0862 137.679 32.0862C138.235 32.0862 138.68 32.2223 139.015 32.4933C139.127 32.5802 139.227 32.6962 139.318 32.8411C139.408 32.9861 139.463 33.1297 139.488 33.2747C139.512 33.4183 139.524 33.6931 139.524 34.0977H139.523ZM138.521 36.0361V34.6106L137.838 34.8564C137.491 34.9849 137.246 35.1148 137.102 35.2458C136.959 35.3769 136.886 35.5395 136.886 35.7336C136.886 35.9277 136.954 36.094 137.09 36.2188C137.227 36.3436 137.403 36.4066 137.619 36.4066C137.943 36.4066 138.244 36.2831 138.52 36.0361H138.521Z" fill="#C6941A"/>
<path d="M142.27 32.1818V33.2833L142.325 33.2001C142.818 32.4591 143.309 32.0873 143.802 32.0873C144.185 32.0873 144.587 32.2675 145.004 32.6305L144.467 33.4661C144.112 33.1523 143.784 32.996 143.483 32.996C143.155 32.996 142.87 33.1422 142.63 33.4346C142.39 33.727 142.27 34.0736 142.27 34.4743V36.9862H141.246V32.1805H142.27V32.1818Z" fill="#C6941A"/>
<path d="M148.977 29.6902H150V36.9875H147.824C147.063 36.9875 146.457 36.7631 146.003 36.3132C145.55 35.8645 145.323 35.2608 145.323 34.5059C145.323 33.7989 145.56 33.2178 146.036 32.7616C146.511 32.3054 147.118 32.0772 147.856 32.0772C148.199 32.0772 148.572 32.1453 148.975 32.2814V29.6902H148.977ZM148.977 36.1721V33.1271C148.66 32.9771 148.34 32.9028 148.014 32.9028C147.507 32.9028 147.103 33.0578 146.804 33.3678C146.504 33.6779 146.353 34.0963 146.353 34.6218C146.353 35.1159 146.484 35.4978 146.744 35.7662C146.901 35.9263 147.067 36.0347 147.242 36.0901C147.418 36.1456 147.732 36.1733 148.187 36.1733H148.975L148.977 36.1721Z" fill="#C6941A"/>
</svg>
