<svg width="336" height="179" viewBox="0 0 336 179" fill="none" xmlns="http://www.w3.org/2000/svg">
<path d="M93.84 92.52C95.6 90.76 96.48 88.36 96.48 85.32C96.48 82.28 95.6 79.9 93.84 78.18C92.12 76.46 90.08 75.6 87.72 75.6C85.36 75.6 83.3 76.48 81.54 78.24C79.82 79.96 78.96 82.34 78.96 85.38C78.96 88.42 79.82 90.82 81.54 92.58C83.3 94.3 85.36 95.16 87.72 95.16C90.08 95.16 92.12 94.28 93.84 92.52ZM78.96 73.92C81.32 70.16 84.78 68.28 89.34 68.28C93.9 68.28 97.66 69.88 100.62 73.08C103.58 76.24 105.06 80.34 105.06 85.38C105.06 90.38 103.58 94.48 100.62 97.68C97.66 100.88 93.92 102.48 89.4 102.48C84.92 102.48 81.44 100.46 78.96 96.42V117.84H70.5V68.76H78.96V73.92ZM111.691 102V57.6H120.151V102H111.691ZM150.332 92.58C152.092 90.82 152.972 88.42 152.972 85.38C152.972 82.34 152.092 79.96 150.332 78.24C148.572 76.48 146.512 75.6 144.152 75.6C141.792 75.6 139.732 76.46 137.972 78.18C136.252 79.9 135.392 82.28 135.392 85.32C135.392 88.36 136.272 90.76 138.032 92.52C139.792 94.28 141.832 95.16 144.152 95.16C146.512 95.16 148.572 94.3 150.332 92.58ZM131.252 97.68C128.292 94.44 126.812 90.32 126.812 85.32C126.812 80.32 128.292 76.24 131.252 73.08C134.212 69.88 137.972 68.28 142.532 68.28C147.092 68.28 150.572 70.16 152.972 73.92V68.76H161.372V102H152.972V96.42C150.452 100.46 146.952 102.48 142.472 102.48C137.992 102.48 134.252 100.88 131.252 97.68ZM183.244 94.92H187.264V102H181.924C178.524 102 175.904 101.22 174.064 99.66C172.224 98.1 171.304 95.52 171.304 91.92V75.66H167.764V68.76H171.304V60.54H179.764V68.76H187.204V75.66H179.764V91.92C179.764 93 180.024 93.78 180.544 94.26C181.064 94.7 181.964 94.92 183.244 94.92ZM208.06 68.76V75.66H202.78V102H194.38V75.66H190.78V68.76H194.38V66.9C194.38 62.9 195.44 59.98 197.56 58.14C199.68 56.3 203.02 55.38 207.58 55.38V62.46C205.82 62.46 204.58 62.8 203.86 63.48C203.14 64.16 202.78 65.3 202.78 66.9V68.76H208.06ZM228.639 95.34C230.999 95.34 233.019 94.48 234.699 92.76C236.419 91 237.279 88.54 237.279 85.38C237.279 82.18 236.439 79.72 234.759 78C233.079 76.28 231.039 75.42 228.639 75.42C226.279 75.42 224.279 76.28 222.639 78C220.999 79.72 220.179 82.18 220.179 85.38C220.179 88.58 220.999 91.04 222.639 92.76C224.279 94.48 226.279 95.34 228.639 95.34ZM216.459 97.74C213.219 94.58 211.599 90.44 211.599 85.32C211.599 80.2 213.239 76.08 216.519 72.96C219.799 69.84 223.859 68.28 228.699 68.28C233.579 68.28 237.659 69.84 240.939 72.96C244.219 76.08 245.859 80.2 245.859 85.32C245.859 90.44 244.199 94.58 240.879 97.74C237.599 100.9 233.519 102.48 228.639 102.48C223.759 102.48 219.699 100.9 216.459 97.74ZM261.011 68.76V74.64C263.251 70.4 266.491 68.28 270.731 68.28V76.92H268.631C266.111 76.92 264.211 77.56 262.931 78.84C261.651 80.08 261.011 82.24 261.011 85.32V102H252.551V68.76H261.011ZM285.21 68.76V73.74C287.33 70.1 290.77 68.28 295.53 68.28C298.05 68.28 300.29 68.86 302.25 70.02C304.25 71.18 305.79 72.84 306.87 75C308.03 72.92 309.61 71.28 311.61 70.08C313.65 68.88 315.93 68.28 318.45 68.28C322.41 68.28 325.59 69.52 327.99 72C330.43 74.48 331.65 77.96 331.65 82.44V102H323.25V83.64C323.25 81.04 322.59 79.06 321.27 77.7C319.95 76.3 318.15 75.6 315.87 75.6C313.59 75.6 311.77 76.3 310.41 77.7C309.09 79.06 308.43 81.04 308.43 83.64V102H300.03V83.64C300.03 81.04 299.37 79.06 298.05 77.7C296.73 76.3 294.93 75.6 292.65 75.6C290.37 75.6 288.55 76.3 287.19 77.7C285.87 79.06 285.21 81.04 285.21 83.64V102H276.75V68.76H285.21Z" fill="#C9961A"/>
<g clip-path="url(#clip0_568_199)">
<path d="M151.811 119.485C153.764 119.485 155.348 117.896 155.348 115.934C155.348 113.973 153.764 112.383 151.811 112.383C149.857 112.383 148.273 113.973 148.273 115.934C148.273 117.896 149.857 119.485 151.811 119.485Z" fill="white"/>
<path d="M60.5119 150.651C94.1861 166.006 134.026 151.008 149.322 117.204L152.543 118.672C136.417 154.301 94.5418 170.073 59.0495 153.865C23.5572 137.697 7.84648 95.6598 23.9919 60.0304L27.2131 61.4984C11.9174 95.3027 26.8574 135.296 60.5316 150.651H60.5119Z" fill="white"/>
<path d="M33.3967 51.6389L30.5312 49.5757C53.2179 17.7354 97.3264 10.3953 129.044 33.1695L126.989 36.046C96.9114 14.4422 54.9372 21.4451 33.4165 51.6389H33.3967Z" fill="white"/>
<path d="M26.4807 62.7879C28.4344 62.7879 30.0181 61.198 30.0181 59.2368C30.0181 57.2756 28.4344 55.6858 26.4807 55.6858C24.5271 55.6858 22.9434 57.2756 22.9434 59.2368C22.9434 61.198 24.5271 62.7879 26.4807 62.7879Z" fill="white"/>
<path d="M27.8441 135.515C53.1986 168.942 100.924 175.429 134.222 149.977L136.357 152.794C101.457 179.476 51.6176 172.691 25.0379 137.657C-1.5418 102.623 5.21676 52.591 40.1162 25.9285L42.2505 28.7455C8.95175 54.1979 2.48962 102.087 27.8441 135.515Z" fill="white"/>
<path d="M42.7444 29.6978C44.698 29.6978 46.2818 28.1079 46.2818 26.1467C46.2818 24.1856 44.698 22.5957 42.7444 22.5957C40.7908 22.5957 39.207 24.1856 39.207 26.1467C39.207 28.1079 40.7908 29.6978 42.7444 29.6978Z" fill="white"/>
<path d="M136.713 153.508C138.667 153.508 140.251 151.918 140.251 149.957C140.251 147.996 138.667 146.406 136.713 146.406C134.76 146.406 133.176 147.996 133.176 149.957C133.176 151.918 134.76 153.508 136.713 153.508Z" fill="white"/>
<path d="M158.036 51.2817L154.934 52.9679C134.935 16.0689 88.7711 2.34088 51.9942 22.4171L50.3145 19.3025C88.8501 -1.72595 137.089 12.5972 158.036 51.2817Z" fill="white"/>
<path d="M157.463 57.8283C159.417 57.8283 161.001 56.2384 161.001 54.2772C161.001 52.3161 159.417 50.7262 157.463 50.7262C155.51 50.7262 153.926 52.3161 153.926 54.2772C153.926 56.2384 155.51 57.8283 157.463 57.8283Z" fill="white"/>
<path d="M4.28842 78.0236C-1.93657 124.505 30.6705 167.415 76.9726 173.664L76.4983 177.175C28.2003 170.648 -5.69133 126.052 0.790567 77.5475C7.29222 29.063 51.7169 -4.97936 100.035 1.5474L99.5604 5.05876C53.2583 -1.19027 10.5134 31.5428 4.28842 78.0236Z" fill="white"/>
<path d="M79.6214 179C81.575 179 83.1587 177.41 83.1587 175.449C83.1587 173.488 81.575 171.898 79.6214 171.898C77.6677 171.898 76.084 173.488 76.084 175.449C76.084 177.41 77.6677 179 79.6214 179Z" fill="white"/>
<path d="M101.912 7.10207C103.866 7.10207 105.45 5.51222 105.45 3.55104C105.45 1.58985 103.866 0 101.912 0C99.9587 0 98.375 1.58985 98.375 3.55104C98.375 5.51222 99.9587 7.10207 101.912 7.10207Z" fill="white"/>
<path d="M128.867 39.7558C130.821 39.7558 132.405 38.1659 132.405 36.2047C132.405 34.2435 130.821 32.6537 128.867 32.6537C126.914 32.6537 125.33 34.2435 125.33 36.2047C125.33 38.1659 126.914 39.7558 128.867 39.7558Z" fill="white"/>
</g>
<defs>
<clipPath id="clip0_568_199">
<rect width="161" height="179" fill="white"/>
</clipPath>
</defs>
</svg>
