<svg width="44" height="78" viewBox="0 0 44 78" fill="none" xmlns="http://www.w3.org/2000/svg">
<g clip-path="url(#clip0_482_153)">
<path d="M41.6896 37.6548C40.95 37.6548 40.3448 38.26 40.3448 38.9996V47.0686C40.3448 57.4574 31.906 65.8962 21.5172 65.8962C11.1284 65.8962 2.68965 57.4574 2.68965 47.0686V38.9996C2.68965 38.26 2.08448 37.6548 1.34483 37.6548C0.605172 37.6548 0 38.26 0 38.9996V47.0686C0 58.4828 8.9431 67.8125 20.1724 68.5186V75.31H13.4483C12.7086 75.31 12.1034 75.8983 12.1034 76.6548C12.1034 77.4112 12.7086 77.9996 13.4483 77.9996H29.5862C30.3259 77.9996 30.931 77.3944 30.931 76.6548C30.931 75.9151 30.3427 75.31 29.5862 75.31H22.8621V68.5186C34.0914 67.8294 43.0345 58.4828 43.0345 47.0686V38.9996C43.0345 38.26 42.4293 37.6548 41.6896 37.6548Z" fill="white"/>
<path d="M21.5172 61.862C29.6702 61.862 36.3103 55.222 36.3103 47.0689V14.7931C36.3103 6.64008 29.6702 0 21.5172 0C13.3642 0 6.72412 6.64008 6.72412 14.7931V47.0689C6.72412 55.222 13.3642 61.862 21.5172 61.862ZM9.41378 14.7931C9.41378 8.11939 14.8435 2.68965 21.5172 2.68965C28.1909 2.68965 33.6207 8.11939 33.6207 14.7931V47.0689C33.6207 53.7426 28.1909 59.1724 21.5172 59.1724C14.8435 59.1724 9.41378 53.7426 9.41378 47.0689V14.7931Z" fill="white"/>
</g>
<defs>
<clipPath id="clip0_482_153">
<rect width="43.0345" height="78" fill="white"/>
</clipPath>
</defs>
</svg>
