<svg width="226" height="79" viewBox="0 0 226 79" fill="none" xmlns="http://www.w3.org/2000/svg">
<path d="M44.343 40.208C45.047 39.504 45.399 38.544 45.399 37.328C45.399 36.112 45.047 35.16 44.343 34.472C43.655 33.784 42.839 33.44 41.895 33.44C40.951 33.44 40.127 33.792 39.423 34.496C38.735 35.184 38.391 36.136 38.391 37.352C38.391 38.568 38.735 39.528 39.423 40.232C40.127 40.92 40.951 41.264 41.895 41.264C42.839 41.264 43.655 40.912 44.343 40.208ZM38.391 32.768C39.335 31.264 40.719 30.512 42.543 30.512C44.367 30.512 45.871 31.152 47.055 32.432C48.239 33.696 48.831 35.336 48.831 37.352C48.831 39.352 48.239 40.992 47.055 42.272C45.871 43.552 44.375 44.192 42.567 44.192C40.775 44.192 39.383 43.384 38.391 41.768V50.336H35.007V30.704H38.391V32.768ZM51.4836 44V26.24H54.8676V44H51.4836ZM66.94 40.232C67.644 39.528 67.996 38.568 67.996 37.352C67.996 36.136 67.644 35.184 66.94 34.496C66.236 33.792 65.412 33.44 64.468 33.44C63.524 33.44 62.7 33.784 61.996 34.472C61.308 35.16 60.964 36.112 60.964 37.328C60.964 38.544 61.316 39.504 62.02 40.208C62.724 40.912 63.54 41.264 64.468 41.264C65.412 41.264 66.236 40.92 66.94 40.232ZM59.308 42.272C58.124 40.976 57.532 39.328 57.532 37.328C57.532 35.328 58.124 33.696 59.308 32.432C60.492 31.152 61.996 30.512 63.82 30.512C65.644 30.512 67.036 31.264 67.996 32.768V30.704H71.356V44H67.996V41.768C66.988 43.384 65.588 44.192 63.796 44.192C62.004 44.192 60.508 43.552 59.308 42.272ZM80.1045 41.168H81.7125V44H79.5765C78.2165 44 77.1685 43.688 76.4325 43.064C75.6965 42.44 75.3285 41.408 75.3285 39.968V33.464H73.9125V30.704H75.3285V27.416H78.7125V30.704H81.6885V33.464H78.7125V39.968C78.7125 40.4 78.8165 40.712 79.0245 40.904C79.2325 41.08 79.5925 41.168 80.1045 41.168ZM90.031 30.704V33.464H87.919V44H84.559V33.464H83.119V30.704H84.559V29.96C84.559 28.36 84.983 27.192 85.831 26.456C86.679 25.72 88.015 25.352 89.839 25.352V28.184C89.135 28.184 88.639 28.32 88.351 28.592C88.063 28.864 87.919 29.32 87.919 29.96V30.704H90.031ZM98.2626 41.336C99.2066 41.336 100.015 40.992 100.687 40.304C101.375 39.6 101.719 38.616 101.719 37.352C101.719 36.072 101.383 35.088 100.711 34.4C100.039 33.712 99.2226 33.368 98.2626 33.368C97.3186 33.368 96.5186 33.712 95.8626 34.4C95.2066 35.088 94.8786 36.072 94.8786 37.352C94.8786 38.632 95.2066 39.616 95.8626 40.304C96.5186 40.992 97.3186 41.336 98.2626 41.336ZM93.3906 42.296C92.0946 41.032 91.4466 39.376 91.4466 37.328C91.4466 35.28 92.1026 33.632 93.4146 32.384C94.7266 31.136 96.3506 30.512 98.2866 30.512C100.239 30.512 101.871 31.136 103.183 32.384C104.495 33.632 105.151 35.28 105.151 37.328C105.151 39.376 104.487 41.032 103.159 42.296C101.847 43.56 100.215 44.192 98.2626 44.192C96.3106 44.192 94.6866 43.56 93.3906 42.296ZM111.211 30.704V33.056C112.107 31.36 113.403 30.512 115.099 30.512V33.968H114.259C113.251 33.968 112.491 34.224 111.979 34.736C111.467 35.232 111.211 36.096 111.211 37.328V44H107.827V30.704H111.211ZM120.891 30.704V32.696C121.739 31.24 123.115 30.512 125.019 30.512C126.027 30.512 126.923 30.744 127.707 31.208C128.507 31.672 129.123 32.336 129.555 33.2C130.019 32.368 130.651 31.712 131.451 31.232C132.267 30.752 133.179 30.512 134.187 30.512C135.771 30.512 137.043 31.008 138.003 32C138.979 32.992 139.467 34.384 139.467 36.176V44H136.107V36.656C136.107 35.616 135.843 34.824 135.315 34.28C134.787 33.72 134.067 33.44 133.155 33.44C132.243 33.44 131.515 33.72 130.971 34.28C130.443 34.824 130.179 35.616 130.179 36.656V44H126.819V36.656C126.819 35.616 126.555 34.824 126.027 34.28C125.499 33.72 124.779 33.44 123.867 33.44C122.955 33.44 122.227 33.72 121.683 34.28C121.155 34.824 120.891 35.616 120.891 36.656V44H117.507V30.704H120.891ZM159.468 40.208C160.172 39.504 160.524 38.544 160.524 37.328C160.524 36.112 160.172 35.16 159.468 34.472C158.78 33.784 157.964 33.44 157.02 33.44C156.076 33.44 155.252 33.792 154.548 34.496C153.86 35.184 153.516 36.136 153.516 37.352C153.516 38.568 153.86 39.528 154.548 40.232C155.252 40.92 156.076 41.264 157.02 41.264C157.964 41.264 158.78 40.912 159.468 40.208ZM153.516 32.768C154.46 31.264 155.844 30.512 157.668 30.512C159.492 30.512 160.996 31.152 162.18 32.432C163.364 33.696 163.956 35.336 163.956 37.352C163.956 39.352 163.364 40.992 162.18 42.272C160.996 43.552 159.5 44.192 157.692 44.192C155.9 44.192 154.508 43.384 153.516 41.768V44H150.132V26.24H153.516V32.768ZM175.081 40.232C175.785 39.528 176.137 38.568 176.137 37.352C176.137 36.136 175.785 35.184 175.081 34.496C174.377 33.792 173.553 33.44 172.609 33.44C171.665 33.44 170.841 33.784 170.137 34.472C169.449 35.16 169.105 36.112 169.105 37.328C169.105 38.544 169.457 39.504 170.161 40.208C170.865 40.912 171.681 41.264 172.609 41.264C173.553 41.264 174.377 40.92 175.081 40.232ZM167.449 42.272C166.265 40.976 165.673 39.328 165.673 37.328C165.673 35.328 166.265 33.696 167.449 32.432C168.633 31.152 170.137 30.512 171.961 30.512C173.785 30.512 175.177 31.264 176.137 32.768V30.704H179.497V44H176.137V41.768C175.129 43.384 173.729 44.192 171.937 44.192C170.145 44.192 168.649 43.552 167.449 42.272ZM182.341 34.592C182.341 33.44 182.829 32.472 183.805 31.688C184.781 30.904 186.077 30.512 187.693 30.512C189.309 30.512 190.605 30.904 191.581 31.688C192.557 32.456 193.077 33.504 193.141 34.832H189.685C189.589 33.712 188.901 33.152 187.621 33.152C186.981 33.152 186.485 33.28 186.133 33.536C185.781 33.792 185.605 34.144 185.605 34.592C185.605 35.04 185.869 35.392 186.397 35.648C186.925 35.904 187.565 36.104 188.317 36.248C189.069 36.392 189.813 36.576 190.549 36.8C191.301 37.008 191.941 37.392 192.469 37.952C192.997 38.496 193.261 39.224 193.261 40.136C193.261 41.336 192.749 42.312 191.725 43.064C190.717 43.816 189.421 44.192 187.837 44.192C186.269 44.192 184.981 43.824 183.973 43.088C182.965 42.336 182.413 41.264 182.317 39.872H185.773C185.901 40.992 186.613 41.552 187.909 41.552C188.533 41.552 189.037 41.416 189.421 41.144C189.805 40.856 189.997 40.488 189.997 40.04C189.997 39.576 189.733 39.216 189.205 38.96C188.677 38.688 188.037 38.48 187.285 38.336C186.533 38.192 185.781 38.016 185.029 37.808C184.293 37.6 183.661 37.232 183.133 36.704C182.605 36.16 182.341 35.456 182.341 34.592ZM201.756 44.192C199.82 44.192 198.244 43.568 197.028 42.32C195.812 41.056 195.204 39.392 195.204 37.328C195.204 35.264 195.812 33.616 197.028 32.384C198.26 31.136 199.844 30.512 201.78 30.512C203.732 30.512 205.332 31.12 206.58 32.336C207.828 33.536 208.452 35.144 208.452 37.16C208.452 37.624 208.42 38.056 208.356 38.456H198.66C198.74 39.32 199.06 40.016 199.62 40.544C200.18 41.072 200.892 41.336 201.756 41.336C202.924 41.336 203.788 40.856 204.348 39.896H207.996C207.612 41.16 206.868 42.192 205.764 42.992C204.66 43.792 203.324 44.192 201.756 44.192ZM204.948 36.272C204.9 35.392 204.572 34.688 203.964 34.16C203.372 33.632 202.652 33.368 201.804 33.368C200.956 33.368 200.244 33.632 199.668 34.16C199.108 34.688 198.772 35.392 198.66 36.272H204.948ZM219.588 40.232C220.292 39.528 220.644 38.568 220.644 37.352C220.644 36.136 220.292 35.184 219.588 34.496C218.884 33.792 218.06 33.44 217.116 33.44C216.172 33.44 215.348 33.784 214.644 34.472C213.956 35.16 213.612 36.112 213.612 37.328C213.612 38.544 213.964 39.504 214.668 40.208C215.372 40.912 216.188 41.264 217.116 41.264C218.06 41.264 218.884 40.92 219.588 40.232ZM211.956 42.272C210.772 40.976 210.18 39.328 210.18 37.328C210.18 35.328 210.772 33.696 211.956 32.432C213.14 31.152 214.644 30.512 216.468 30.512C218.292 30.512 219.684 31.264 220.644 32.768V26.24H224.004V44H220.644V41.768C219.636 43.384 218.236 44.192 216.444 44.192C214.652 44.192 213.156 43.552 211.956 42.272Z" fill="white"/>
<g clip-path="url(#clip0_743_327)">
<path d="M66.9467 52.7338C67.8082 52.7338 68.5066 52.0321 68.5066 51.1666C68.5066 50.301 67.8082 49.5994 66.9467 49.5994C66.0851 49.5994 65.3867 50.301 65.3867 51.1666C65.3867 52.0321 66.0851 52.7338 66.9467 52.7338Z" fill="white"/>
<path d="M26.6844 66.4886C41.5345 73.2653 59.1037 66.6462 65.849 51.727L67.2695 52.3749C60.1582 68.0996 41.6914 75.0601 26.0395 67.9069C10.3876 60.7713 3.45928 42.2186 10.5793 26.4939L11.9998 27.1418C5.25454 42.061 11.843 59.7119 26.6931 66.4886H26.6844Z" fill="white"/>
<path d="M14.7285 22.7904L13.4648 21.8798C23.4695 7.82737 42.9211 4.58787 56.9084 14.6391L56.0021 15.9086C42.7381 6.37398 24.2277 9.46463 14.7372 22.7904H14.7285Z" fill="white"/>
<path d="M11.6771 27.7109C12.5387 27.7109 13.2371 27.0092 13.2371 26.1436C13.2371 25.2781 12.5387 24.5764 11.6771 24.5764C10.8156 24.5764 10.1172 25.2781 10.1172 26.1436C10.1172 27.0092 10.8156 27.7109 11.6771 27.7109Z" fill="white"/>
<path d="M12.2797 59.8082C23.4609 74.5611 44.5073 77.4241 59.1918 66.1909L60.133 67.4342C44.7426 79.2102 22.7637 76.2158 11.0422 60.7538C-0.679293 45.2917 2.30119 23.2106 17.6916 11.4434L18.6328 12.6866C3.9483 23.9198 1.09854 45.0553 12.2797 59.8082Z" fill="white"/>
<path d="M18.851 13.1068C19.7125 13.1068 20.4109 12.4052 20.4109 11.5396C20.4109 10.6741 19.7125 9.97241 18.851 9.97241C17.9894 9.97241 17.291 10.6741 17.291 11.5396C17.291 12.4052 17.9894 13.1068 18.851 13.1068Z" fill="white"/>
<path d="M60.2904 67.7493C61.152 67.7493 61.8504 67.0476 61.8504 66.1821C61.8504 65.3165 61.152 64.6149 60.2904 64.6149C59.4289 64.6149 58.7305 65.3165 58.7305 66.1821C58.7305 67.0476 59.4289 67.7493 60.2904 67.7493Z" fill="white"/>
<path d="M69.6922 22.6327L68.324 23.3769C59.5046 7.09185 39.1466 1.03311 22.9283 9.89358L22.1875 8.51898C39.1815 -0.761745 60.4545 5.55966 69.6922 22.6327Z" fill="white"/>
<path d="M69.4389 25.522C70.3004 25.522 70.9988 24.8203 70.9988 23.9548C70.9988 23.0892 70.3004 22.3876 69.4389 22.3876C68.5773 22.3876 67.8789 23.0892 67.8789 23.9548C67.8789 24.8203 68.5773 25.522 69.4389 25.522Z" fill="white"/>
<path d="M1.89094 34.435C-0.854246 54.9489 13.5253 73.8868 33.9442 76.6448L33.735 78.1945C12.4359 75.314 -2.51007 55.6318 0.348405 34.2249C3.21559 12.8267 22.8066 -2.19761 44.1144 0.682914L43.9053 2.23262C23.4864 -0.525331 4.63612 13.9211 1.89094 34.435Z" fill="white"/>
<path d="M35.1127 79C35.9742 79 36.6727 78.2984 36.6727 77.4328C36.6727 76.5673 35.9742 75.8656 35.1127 75.8656C34.2512 75.8656 33.5527 76.5673 33.5527 77.4328C33.5527 78.2984 34.2512 79 35.1127 79Z" fill="white"/>
<path d="M44.9428 3.13443C45.8043 3.13443 46.5027 2.43277 46.5027 1.56722C46.5027 0.701667 45.8043 0 44.9428 0C44.0812 0 43.3828 0.701667 43.3828 1.56722C43.3828 2.43277 44.0812 3.13443 44.9428 3.13443Z" fill="white"/>
<path d="M56.8295 17.5458C57.691 17.5458 58.3895 16.8441 58.3895 15.9786C58.3895 15.113 57.691 14.4114 56.8295 14.4114C55.968 14.4114 55.2695 15.113 55.2695 15.9786C55.2695 16.8441 55.968 17.5458 56.8295 17.5458Z" fill="white"/>
</g>
<defs>
<clipPath id="clip0_743_327">
<rect width="71" height="79" fill="white"/>
</clipPath>
</defs>
</svg>
