<svg width="70" height="61" viewBox="0 0 70 61" fill="none" xmlns="http://www.w3.org/2000/svg">
<path d="M38.2127 0.532188C36.9009 -0.193523 35.3535 -0.177029 34.0584 0.581668C33.9912 0.614655 33.9407 0.664135 33.8903 0.697122L15.6585 15.8216H1.34552C0.605484 15.8216 0 16.4154 0 17.1411V42.2111C0 42.5574 0.151371 42.9038 0.386837 43.1512C0.639122 43.3986 0.975501 43.5306 1.34552 43.5306H15.6248L33.8398 59.9415C33.9071 60.0075 33.9912 60.057 34.0584 60.09C34.7144 60.4858 35.4544 60.6837 36.1945 60.6837C36.9345 60.6837 37.5904 60.5188 38.2296 60.1559C39.5751 59.4137 40.3824 58.0613 40.3824 56.5274V4.17724C40.3824 2.64335 39.5751 1.29089 38.2296 0.532188H38.2127ZM37.6577 56.5439C37.6577 57.1047 37.3718 57.616 36.884 57.8798C36.6654 57.9953 36.144 58.2097 35.5385 57.9128L17.4749 41.6503V35.6467C17.4749 34.921 16.8863 34.3272 16.1294 34.3272C15.3726 34.3272 14.7839 34.921 14.7839 35.6467V40.9246H2.69104V18.51H14.8007V23.7879C14.8007 24.5136 15.4062 25.1074 16.1462 25.1074C16.8863 25.1074 17.4917 24.5136 17.4917 23.7879V17.8008L35.5217 2.80828C36.144 2.49491 36.6822 2.70932 36.884 2.82477C37.3718 3.08867 37.6577 3.59997 37.6577 4.16074V56.5274V56.5439Z" fill="white"/>
<path d="M52.2055 5.34761C51.4991 5.1167 50.7423 5.49605 50.49 6.17228C50.2545 6.865 50.6245 7.60721 51.3309 7.83811C60.8841 11.0213 67.309 19.7959 67.309 29.6754C67.309 39.555 60.9009 48.3295 51.3646 51.5127C50.6582 51.7436 50.2882 52.5023 50.5236 53.195C50.7086 53.7393 51.2468 54.0857 51.8019 54.0857C51.9532 54.0857 52.0878 54.0692 52.2392 54.0197C62.8688 50.4571 70 40.6765 70 29.6754C70 18.6743 62.8519 8.8772 52.2055 5.33111V5.34761Z" fill="white"/>
<path d="M57.8912 29.6917C57.8912 21.8078 52.4923 14.7816 44.7724 12.588C44.0492 12.39 43.3091 12.7859 43.1073 13.4951C42.9055 14.1878 43.3091 14.93 44.0323 15.128C50.6086 16.9917 55.2001 22.9788 55.2001 29.6917C55.2001 36.4045 50.6086 42.3916 44.0323 44.2554C43.3091 44.4533 42.9055 45.1955 43.1073 45.8882C43.2755 46.4655 43.8137 46.8448 44.4023 46.8448C44.5201 46.8448 44.6546 46.8283 44.7724 46.7953C52.4923 44.6017 57.8912 37.5755 57.8912 29.6917Z" fill="white"/>
</svg>
